# xmcd CD database file
#
# Track frame offsets:
#       150
#       8814
#       28448
#       47846
#       70620
#       91920
#       107017
#       126451
#       138749
#       153021
#
# Disc length: 2380 seconds
#
# Revision: 0
# Processed by: cddbd v1.5.2PL0 Copyright (c) Steve Scherf et al.
# Submitted via: jack 3.1.1
#
DISCID=84094a0a
DTITLE=The Head and the Heart - The Head and the Heart
DYEAR=2011
DGENRE=Folk
TTITLE0=Cats and Dogs
TTITLE1=Coeur d'Alene
TTITLE2=Ghosts
TTITLE3=Down in the Valley
TTITLE4=Rivers and Roads
TTITLE5=Honey Come Home
TTITLE6=Lost in my Mind
TTITLE7=Winter Song
TTITLE8=Sounds Like Hallelujah
TTITLE9=Heaven Go Easy on Me
EXTD=
EXTT0=
EXTT1=
EXTT2=
EXTT3=
EXTT4=
EXTT5=
EXTT6=
EXTT7=
EXTT8=
EXTT9=
PLAYORDER=
